solid test
  facet normal 0e+0 1e+0 0e+0
    outer loop
      vertex 0e+0 0e+0 0e+0
      vertex 0e+0 0e+0 1e+1
      vertex 2e+1 0e+0 1e+1
    endloop
  endfacet
  facet normal 0e+0 -1e+0 0e+0
    outer loop
      vertex 0e+0 0e+0 0e+0
      vertex 2e+1 0e+0 0e+0
      vertex 2e+1 0e+0 1e+1
    endloop
  endfacet
  facet normal -1e+0 0e+0 0e+0
    outer loop
      vertex 0e+0 0e+0 0e+0
      vertex 0e+0 0e+0 1e+1
      vertex 0e+0 1e+1 1e+1
    endloop
  endfacet
  facet normal 1e+0 0e+0 0e+0
    outer loop
      vertex 0e+0 0e+0 0e+0
      vertex 0e+0 1e+1 0e+0
      vertex 0e+0 1e+1 1e+1
    endloop
  endfacet
  facet normal -1e+0 0e+0 0e+0
    outer loop
      vertex 2e+1 0e+0 0e+0
      vertex 2e+1 0e+0 1e+1
      vertex 2e+1 1e+1 1e+1
    endloop
  endfacet
  facet normal 1e+0 0e+0 0e+0
    outer loop
      vertex 2e+1 0e+0 0e+0
      vertex 2e+1 1e+1 0e+0
      vertex 2e+1 1e+1 1e+1
    endloop
  endfacet
  facet normal 0e+0 1e+0 0e+0
    outer loop
      vertex 0e+0 1e+1 0e+0
      vertex 0e+0 1e+1 1e+1
      vertex 2e+1 1e+1 1e+1
    endloop
  endfacet
  facet normal 0e+0 -1e+0 0e+0
    outer loop
      vertex 0e+0 1e+1 0e+0
      vertex 2e+1 1e+1 0e+0
      vertex 2e+1 1e+1 1e+1
    endloop
  endfacet
  facet normal 0e+0 0e+0 -1e+0
    outer loop
      vertex 0e+0 0e+0 1e+1
      vertex 0e+0 1e+1 1e+1
      vertex 2e+1 1e+1 1e+1
    endloop
  endfacet
  facet normal 0e+0 0e+0 1e+0
    outer loop
      vertex 0e+0 0e+0 1e+1
      vertex 2e+1 0e+0 1e+1
      vertex 2e+1 1e+1 1e+1
    endloop
  endfacet
  facet normal 0e+0 1e+0 0e+0
    outer loop
      vertex 3e+1 1e+1 0e+0
      vertex 3e+1 1e+1 1e+1
      vertex 4e+1 1e+1 1e+1
    endloop
  endfacet
  facet normal 0e+0 -1e+0 0e+0
    outer loop
      vertex 3e+1 1e+1 0e+0
      vertex 4e+1 1e+1 0e+0
      vertex 4e+1 1e+1 1e+1
    endloop
  endfacet
  facet normal -1e+0 0e+0 0e+0
    outer loop
      vertex 3e+1 1e+1 0e+0
      vertex 3e+1 1e+1 1e+1
      vertex 3e+1 3e+1 1e+1
    endloop
  endfacet
  facet normal 1e+0 0e+0 0e+0
    outer loop
      vertex 3e+1 1e+1 0e+0
      vertex 3e+1 3e+1 0e+0
      vertex 3e+1 3e+1 1e+1
    endloop
  endfacet
  facet normal -1e+0 0e+0 0e+0
    outer loop
      vertex 4e+1 1e+1 0e+0
      vertex 4e+1 1e+1 1e+1
      vertex 4e+1 3e+1 1e+1
    endloop
  endfacet
  facet normal 1e+0 0e+0 0e+0
    outer loop
      vertex 4e+1 1e+1 0e+0
      vertex 4e+1 3e+1 0e+0
      vertex 4e+1 3e+1 1e+1
    endloop
  endfacet
  facet normal 0e+0 1e+0 0e+0
    outer loop
      vertex 3e+1 3e+1 0e+0
      vertex 3e+1 3e+1 1e+1
      vertex 4e+1 3e+1 1e+1
    endloop
  endfacet
  facet normal 0e+0 -1e+0 0e+0
    outer loop
      vertex 3e+1 3e+1 0e+0
      vertex 4e+1 3e+1 0e+0
      vertex 4e+1 3e+1 1e+1
    endloop
  endfacet
  facet normal 0e+0 0e+0 -1e+0
    outer loop
      vertex 3e+1 1e+1 1e+1
      vertex 3e+1 3e+1 1e+1
      vertex 4e+1 3e+1 1e+1
    endloop
  endfacet
  facet normal 0e+0 0e+0 1e+0
    outer loop
      vertex 3e+1 1e+1 1e+1
      vertex 4e+1 1e+1 1e+1
      vertex 4e+1 3e+1 1e+1
    endloop
  endfacet
  facet normal 0e+0 1e+0 0e+0
    outer loop
      vertex 3e+1 3e+1 0e+0
      vertex 3e+1 3e+1 1e+1
      vertex 5e+1 3e+1 1e+1
    endloop
  endfacet
  facet normal 0e+0 -1e+0 0e+0
    outer loop
      vertex 3e+1 3e+1 0e+0
      vertex 5e+1 3e+1 0e+0
      vertex 5e+1 3e+1 1e+1
    endloop
  endfacet
  facet normal -1e+0 0e+0 0e+0
    outer loop
      vertex 3e+1 3e+1 0e+0
      vertex 3e+1 3e+1 1e+1
      vertex 3e+1 5e+1 1e+1
    endloop
  endfacet
  facet normal 1e+0 0e+0 0e+0
    outer loop
      vertex 3e+1 3e+1 0e+0
      vertex 3e+1 5e+1 0e+0
      vertex 3e+1 5e+1 1e+1
    endloop
  endfacet
  facet normal -1e+0 0e+0 0e+0
    outer loop
      vertex 5e+1 3e+1 0e+0
      vertex 5e+1 3e+1 1e+1
      vertex 5e+1 5e+1 1e+1
    endloop
  endfacet
  facet normal 1e+0 0e+0 0e+0
    outer loop
      vertex 5e+1 3e+1 0e+0
      vertex 5e+1 5e+1 0e+0
      vertex 5e+1 5e+1 1e+1
    endloop
  endfacet
  facet normal 0e+0 1e+0 0e+0
    outer loop
      vertex 3e+1 5e+1 0e+0
      vertex 3e+1 5e+1 1e+1
      vertex 5e+1 5e+1 1e+1
    endloop
  endfacet
  facet normal 0e+0 -1e+0 0e+0
    outer loop
      vertex 3e+1 5e+1 0e+0
      vertex 5e+1 5e+1 0e+0
      vertex 5e+1 5e+1 1e+1
    endloop
  endfacet
  facet normal 0e+0 0e+0 -1e+0
    outer loop
      vertex 3e+1 3e+1 1e+1
      vertex 3e+1 5e+1 1e+1
      vertex 5e+1 5e+1 1e+1
    endloop
  endfacet
  facet normal 0e+0 0e+0 1e+0
    outer loop
      vertex 3e+1 3e+1 1e+1
      vertex 5e+1 3e+1 1e+1
      vertex 5e+1 5e+1 1e+1
    endloop
  endfacet
  facet normal 0e+0 1e+0 0e+0
    outer loop
      vertex 5e+1 0e+0 0e+0
      vertex 5e+1 0e+0 1e+1
      vertex 6e+1 0e+0 1e+1
    endloop
  endfacet
  facet normal 0e+0 -1e+0 0e+0
    outer loop
      vertex 5e+1 0e+0 0e+0
      vertex 6e+1 0e+0 0e+0
      vertex 6e+1 0e+0 1e+1
    endloop
  endfacet
  facet normal -1e+0 0e+0 0e+0
    outer loop
      vertex 5e+1 0e+0 0e+0
      vertex 5e+1 0e+0 1e+1
      vertex 5e+1 6e+1 1e+1
    endloop
  endfacet
  facet normal 1e+0 0e+0 0e+0
    outer loop
      vertex 5e+1 0e+0 0e+0
      vertex 5e+1 6e+1 0e+0
      vertex 5e+1 6e+1 1e+1
    endloop
  endfacet
  facet normal -1e+0 0e+0 0e+0
    outer loop
      vertex 6e+1 0e+0 0e+0
      vertex 6e+1 0e+0 1e+1
      vertex 6e+1 6e+1 1e+1
    endloop
  endfacet
  facet normal 1e+0 0e+0 0e+0
    outer loop
      vertex 6e+1 0e+0 0e+0
      vertex 6e+1 6e+1 0e+0
      vertex 6e+1 6e+1 1e+1
    endloop
  endfacet
  facet normal 0e+0 1e+0 0e+0
    outer loop
      vertex 5e+1 6e+1 0e+0
      vertex 5e+1 6e+1 1e+1
      vertex 6e+1 6e+1 1e+1
    endloop
  endfacet
  facet normal 0e+0 -1e+0 0e+0
    outer loop
      vertex 5e+1 6e+1 0e+0
      vertex 6e+1 6e+1 0e+0
      vertex 6e+1 6e+1 1e+1
    endloop
  endfacet
  facet normal 0e+0 0e+0 -1e+0
    outer loop
      vertex 5e+1 0e+0 1e+1
      vertex 5e+1 6e+1 1e+1
      vertex 6e+1 6e+1 1e+1
    endloop
  endfacet
  facet normal 0e+0 0e+0 1e+0
    outer loop
      vertex 5e+1 0e+0 1e+1
      vertex 6e+1 0e+0 1e+1
      vertex 6e+1 6e+1 1e+1
    endloop
  endfacet
  facet normal 0e+0 1e+0 0e+0
    outer loop
      vertex 2e+1 3e+1 0e+0
      vertex 2e+1 3e+1 1e+1
      vertex 3e+1 3e+1 1e+1
    endloop
  endfacet
  facet normal 0e+0 -1e+0 0e+0
    outer loop
      vertex 2e+1 3e+1 0e+0
      vertex 3e+1 3e+1 0e+0
      vertex 3e+1 3e+1 1e+1
    endloop
  endfacet
  facet normal -1e+0 0e+0 0e+0
    outer loop
      vertex 2e+1 3e+1 0e+0
      vertex 2e+1 3e+1 1e+1
      vertex 2e+1 6e+1 1e+1
    endloop
  endfacet
  facet normal 1e+0 0e+0 0e+0
    outer loop
      vertex 2e+1 3e+1 0e+0
      vertex 2e+1 6e+1 0e+0
      vertex 2e+1 6e+1 1e+1
    endloop
  endfacet
  facet normal -1e+0 0e+0 0e+0
    outer loop
      vertex 3e+1 3e+1 0e+0
      vertex 3e+1 3e+1 1e+1
      vertex 3e+1 6e+1 1e+1
    endloop
  endfacet
  facet normal 1e+0 0e+0 0e+0
    outer loop
      vertex 3e+1 3e+1 0e+0
      vertex 3e+1 6e+1 0e+0
      vertex 3e+1 6e+1 1e+1
    endloop
  endfacet
  facet normal 0e+0 1e+0 0e+0
    outer loop
      vertex 2e+1 6e+1 0e+0
      vertex 2e+1 6e+1 1e+1
      vertex 3e+1 6e+1 1e+1
    endloop
  endfacet
  facet normal 0e+0 -1e+0 0e+0
    outer loop
      vertex 2e+1 6e+1 0e+0
      vertex 3e+1 6e+1 0e+0
      vertex 3e+1 6e+1 1e+1
    endloop
  endfacet
  facet normal 0e+0 0e+0 -1e+0
    outer loop
      vertex 2e+1 3e+1 1e+1
      vertex 2e+1 6e+1 1e+1
      vertex 3e+1 6e+1 1e+1
    endloop
  endfacet
  facet normal 0e+0 0e+0 1e+0
    outer loop
      vertex 2e+1 3e+1 1e+1
      vertex 3e+1 3e+1 1e+1
      vertex 3e+1 6e+1 1e+1
    endloop
  endfacet
  facet normal 0e+0 1e+0 0e+0
    outer loop
      vertex 0e+0 4e+1 0e+0
      vertex 0e+0 4e+1 1e+1
      vertex 1e+1 4e+1 1e+1
    endloop
  endfacet
  facet normal 0e+0 -1e+0 0e+0
    outer loop
      vertex 0e+0 4e+1 0e+0
      vertex 1e+1 4e+1 0e+0
      vertex 1e+1 4e+1 1e+1
    endloop
  endfacet
  facet normal -1e+0 0e+0 0e+0
    outer loop
      vertex 0e+0 4e+1 0e+0
      vertex 0e+0 4e+1 1e+1
      vertex 0e+0 6e+1 1e+1
    endloop
  endfacet
  facet normal 1e+0 0e+0 0e+0
    outer loop
      vertex 0e+0 4e+1 0e+0
      vertex 0e+0 6e+1 0e+0
      vertex 0e+0 6e+1 1e+1
    endloop
  endfacet
  facet normal -1e+0 0e+0 0e+0
    outer loop
      vertex 1e+1 4e+1 0e+0
      vertex 1e+1 4e+1 1e+1
      vertex 1e+1 6e+1 1e+1
    endloop
  endfacet
  facet normal 1e+0 0e+0 0e+0
    outer loop
      vertex 1e+1 4e+1 0e+0
      vertex 1e+1 6e+1 0e+0
      vertex 1e+1 6e+1 1e+1
    endloop
  endfacet
  facet normal 0e+0 1e+0 0e+0
    outer loop
      vertex 0e+0 6e+1 0e+0
      vertex 0e+0 6e+1 1e+1
      vertex 1e+1 6e+1 1e+1
    endloop
  endfacet
  facet normal 0e+0 -1e+0 0e+0
    outer loop
      vertex 0e+0 6e+1 0e+0
      vertex 1e+1 6e+1 0e+0
      vertex 1e+1 6e+1 1e+1
    endloop
  endfacet
  facet normal 0e+0 0e+0 -1e+0
    outer loop
      vertex 0e+0 4e+1 1e+1
      vertex 0e+0 6e+1 1e+1
      vertex 1e+1 6e+1 1e+1
    endloop
  endfacet
  facet normal 0e+0 0e+0 1e+0
    outer loop
      vertex 0e+0 4e+1 1e+1
      vertex 1e+1 4e+1 1e+1
      vertex 1e+1 6e+1 1e+1
    endloop
  endfacet
  facet normal 0e+0 1e+0 0e+0
    outer loop
      vertex 1e+1 1e+1 0e+0
      vertex 1e+1 1e+1 1e+1
      vertex 2e+1 1e+1 1e+1
    endloop
  endfacet
  facet normal 0e+0 -1e+0 0e+0
    outer loop
      vertex 1e+1 1e+1 0e+0
      vertex 2e+1 1e+1 0e+0
      vertex 2e+1 1e+1 1e+1
    endloop
  endfacet
  facet normal -1e+0 0e+0 0e+0
    outer loop
      vertex 1e+1 1e+1 0e+0
      vertex 1e+1 1e+1 1e+1
      vertex 1e+1 6e+1 1e+1
    endloop
  endfacet
  facet normal 1e+0 0e+0 0e+0
    outer loop
      vertex 1e+1 1e+1 0e+0
      vertex 1e+1 6e+1 0e+0
      vertex 1e+1 6e+1 1e+1
    endloop
  endfacet
  facet normal -1e+0 0e+0 0e+0
    outer loop
      vertex 2e+1 1e+1 0e+0
      vertex 2e+1 1e+1 1e+1
      vertex 2e+1 6e+1 1e+1
    endloop
  endfacet
  facet normal 1e+0 0e+0 0e+0
    outer loop
      vertex 2e+1 1e+1 0e+0
      vertex 2e+1 6e+1 0e+0
      vertex 2e+1 6e+1 1e+1
    endloop
  endfacet
  facet normal 0e+0 1e+0 0e+0
    outer loop
      vertex 1e+1 6e+1 0e+0
      vertex 1e+1 6e+1 1e+1
      vertex 2e+1 6e+1 1e+1
    endloop
  endfacet
  facet normal 0e+0 -1e+0 0e+0
    outer loop
      vertex 1e+1 6e+1 0e+0
      vertex 2e+1 6e+1 0e+0
      vertex 2e+1 6e+1 1e+1
    endloop
  endfacet
  facet normal 0e+0 0e+0 -1e+0
    outer loop
      vertex 1e+1 1e+1 1e+1
      vertex 1e+1 6e+1 1e+1
      vertex 2e+1 6e+1 1e+1
    endloop
  endfacet
  facet normal 0e+0 0e+0 1e+0
    outer loop
      vertex 1e+1 1e+1 1e+1
      vertex 2e+1 1e+1 1e+1
      vertex 2e+1 6e+1 1e+1
    endloop
  endfacet
  facet normal 0e+0 1e+0 0e+0
    outer loop
      vertex 2e+1 1e+1 0e+0
      vertex 2e+1 1e+1 1e+1
      vertex 3e+1 1e+1 1e+1
    endloop
  endfacet
  facet normal 0e+0 -1e+0 0e+0
    outer loop
      vertex 2e+1 1e+1 0e+0
      vertex 3e+1 1e+1 0e+0
      vertex 3e+1 1e+1 1e+1
    endloop
  endfacet
  facet normal -1e+0 0e+0 0e+0
    outer loop
      vertex 2e+1 1e+1 0e+0
      vertex 2e+1 1e+1 1e+1
      vertex 2e+1 2e+1 1e+1
    endloop
  endfacet
  facet normal 1e+0 0e+0 0e+0
    outer loop
      vertex 2e+1 1e+1 0e+0
      vertex 2e+1 2e+1 0e+0
      vertex 2e+1 2e+1 1e+1
    endloop
  endfacet
  facet normal -1e+0 0e+0 0e+0
    outer loop
      vertex 3e+1 1e+1 0e+0
      vertex 3e+1 1e+1 1e+1
      vertex 3e+1 2e+1 1e+1
    endloop
  endfacet
  facet normal 1e+0 0e+0 0e+0
    outer loop
      vertex 3e+1 1e+1 0e+0
      vertex 3e+1 2e+1 0e+0
      vertex 3e+1 2e+1 1e+1
    endloop
  endfacet
  facet normal 0e+0 1e+0 0e+0
    outer loop
      vertex 2e+1 2e+1 0e+0
      vertex 2e+1 2e+1 1e+1
      vertex 3e+1 2e+1 1e+1
    endloop
  endfacet
  facet normal 0e+0 -1e+0 0e+0
    outer loop
      vertex 2e+1 2e+1 0e+0
      vertex 3e+1 2e+1 0e+0
      vertex 3e+1 2e+1 1e+1
    endloop
  endfacet
  facet normal 0e+0 0e+0 -1e+0
    outer loop
      vertex 2e+1 1e+1 1e+1
      vertex 2e+1 2e+1 1e+1
      vertex 3e+1 2e+1 1e+1
    endloop
  endfacet
  facet normal 0e+0 0e+0 1e+0
    outer loop
      vertex 2e+1 1e+1 1e+1
      vertex 3e+1 1e+1 1e+1
      vertex 3e+1 2e+1 1e+1
    endloop
  endfacet
endsolid